PathFileType	4	(X/Y/Z)	63_1_3_p0_0-341.trc
DataRate	CameraRate	NumFrames	NumMarkers	Units	OrigDataRate	OrigDataStartFrame	OrigNumFrames
51.0	51.0	5	27	m	51.0	0	342
Frame#	Time	RHip			RKnee			RAnkle			RBigToe			RSmallToe			RHeel			LHip			LKnee			LAnkle			LBigToe			LSmallToe			LHeel			Neck			Head			Nose			RShoulder			RElbow			RWrist			RThumb			RIndex			RPinky			LShoulder			LElbow			LWrist			LThumb			LIndex			LPinky			
		X1	Y1	Z1	X2	Y2	Z2	X3	Y3	Z3	X4	Y4	Z4	X5	Y5	Z5	X6	Y6	Z6	X7	Y7	Z7	X8	Y8	Z8	X9	Y9	Z9	X10	Y10	Z10	X11	Y11	Z11	X12	Y12	Z12	X13	Y13	Z13	X14	Y14	Z14	X15	Y15	Z15	X16	Y16	Z16	X17	Y17	Z17	X18	Y18	Z18	X19	Y19	Z19	X20	Y20	Z20	X21	Y21	Z21	X22	Y22	Z22	X23	Y23	Z23	X24	Y24	Z24	X25	Y25	Z25	X26	Y26	Z26	X27	Y27	Z27	
0	0.0	0.32795284852869183	0.5763878386810233	0.7653875100195409	0.3170468762749451	0.7145810997644871	1.1363293898925384	0.312902155980386	0.9374736733227185	1.5691535451555476	0.27821337176102856	0.6327255553277463	1.5928189174040934	0.33770408630272947	0.7302876261044703	1.6143260381300977	0.3101264727594899	0.9818691331151529	1.6247036746390993	0.1314795896804798	0.5726619078092202	0.7842012425748625	0.16544045626253756	0.6666009595876887	1.1350178204535355	0.1722149413541929	0.9066220447914092	1.5563206920580783	0.14256972802463702	0.6791486197775671	1.5992033856883907	0.0980759519016849	0.7620292099685552	1.607463648285773	0.1957529693808366	1.0031884371182587	1.6345257908870923	0.19254379011502004	0.403870158735668	0.22239501795047245	0.15475658646663829	0.2680796702522894	0.004386528223938604	0.14635028235858907	0.24993670614896132	0.1442142900359658	0.34041971629851914	0.38595921568713404	0.3184062627432879	0.4003720842516615	0.4349332909991	0.5860696035854701	0.36079009228037723	0.4120455337668533	0.8167657179914941	0.280690710411221	0.3921911983133361	0.9013522918902923	0.2995011486725607	0.3889991709776717	0.9232298274022717	0.3298174603323761	0.4238682900249893	0.9284894768380408	0.033474954649943676	0.4432792383386451	0.32720291599049744	0.029923564875246136	0.5018541570750953	0.5971733258204651	0.05767855158202281	0.48510290253290916	0.8018722780916517	0.09957531810641819	0.4269256452324186	0.8779189239223236	0.09259309163720635	0.42608386645757806	0.9052431235291974	0.06296897990119042	0.46596536756207635	0.9098349550319239
1	0.0196078431372549	0.32790845347306474	0.576833574027517	0.773015033300299	0.31706316945013396	0.7141386558457532	1.1399476152119792	0.3128824422843041	0.9378859919478876	1.5690080346108872	0.2822953207921558	0.6467232206743471	1.5960765215120067	0.3344227673877928	0.7242738339688324	1.6091079924813185	0.3152428852371176	1.0002334288840256	1.6291585866345581	0.13829644692392035	0.5579107364169962	0.7862813888690662	0.1651774043312474	0.6678303920178035	1.1430945138367645	0.1719613000644921	0.906131065043014	1.5561926252055993	0.14245466133695311	0.6793653701934961	1.5989825126948538	0.09774168145995576	0.7617170982901146	1.607271916223923	0.1955573474046669	1.0022950208326538	1.6341518987859853	0.19335700346786633	0.40596098348259163	0.22942198168305053	0.15507427072381536	0.2685194647732271	0.0074755602895545505	0.14641050191083066	0.24984247172928678	0.14421137063388587	0.34080960856001796	0.3859090465768463	0.3218358817756108	0.39930584327432117	0.4337160224088757	0.5857401487517194	0.3598258617265424	0.4098343746566576	0.8131442217250838	0.27695684043571595	0.3826456639039362	0.8997356772011952	0.2989121156884257	0.38855791319608807	0.9233296139890581	0.32903925385940663	0.42220305698813587	0.9285846342968761	0.03348256887125271	0.44304389281776513	0.32721087480207695	0.026452901253646043	0.48908034535086936	0.5974192331938022	0.05830998682474113	0.45800354368601587	0.8040251834083768	0.1033901922003899	0.4134503357046998	0.8766830123001413	0.09269062195019533	0.42578872427965464	0.9051003331089923	0.06810472064320437	0.4547311895141691	0.913264794355994
2	0.0392156862745098	0.33067208770097006	0.5616072139151501	0.7681699135920868	0.3226519368283575	0.7282107758693475	1.1420302349593874	0.3129052028213476	0.9376054282735294	1.569220891287692	0.2866159155067981	0.6597148065393451	1.6000901624750037	0.3371168774892608	0.7069432875790576	1.6035769044186796	0.31528790313789473	1.0004896157360748	1.6291347515945762	0.13937695106789613	0.5606096493649533	0.7864327331173436	0.16543101857593717	0.6670763695892167	1.135007058395212	0.17078050473360748	0.9026340699255131	1.5511600533067909	0.14247549049220692	0.6788756473151272	1.5987263451516922	0.09389733375253502	0.7459687844879623	1.6023973998668986	0.1942932647254032	0.9989803744729877	1.6304938903909922	0.19337378985130318	0.4059056038587041	0.22942658697562754	0.15503337300257142	0.26847844224976447	0.007466751186708458	0.14637790757419333	0.2498636050902915	0.1442782563465579	0.34106184867821393	0.38585771815278636	0.3218628166461038	0.39920591914931275	0.43352333452839775	0.5857485954298222	0.35234474514141173	0.41291700457038094	0.8099154673177826	0.2758829159251388	0.3808268239934537	0.8961421817838053	0.2908057413521853	0.40074158386395853	0.921071685381791	0.32813829233815167	0.4230629912033337	0.9250080020747805	0.03352457206087387	0.44326833544737526	0.3271925451833373	0.030239265915221112	0.4757292157719001	0.5972054646168079	0.06199083289080127	0.47087644170535037	0.8045735182084451	0.10348949235610519	0.41328614212912185	0.8765436737954989	0.09322432283409604	0.4244975765260273	0.9020770624968267	0.0720348577069282	0.4420511613063751	0.9117197404031541
3	0.058823529411764705	0.32775616061871143	0.576714961627245	0.7689903657200167	0.3166973490577325	0.7143258529941624	1.1362892776388578	0.3128724125742633	0.9375684866619161	1.569154199260893	0.28197493797481255	0.6463032137841803	1.5959899547043677	0.3344564233685598	0.7235540872145046	1.6089750769572186	0.3153004256514345	1.0004708424980848	1.6289554388260763	0.13418531414349122	0.5567452627962697	0.7823375458782488	0.16514382243224038	0.6669899623965837	1.1347225379691888	0.17078876518651723	0.9024600406339106	1.5511058033192417	0.14241016703750853	0.6784807331620839	1.5985483952400232	0.09468046847514953	0.7438862438446989	1.59780076017191	0.1942840510787984	0.9990921000365856	1.6305323057825678	0.19343381752393324	0.40596199028737434	0.22946478210083113	0.15512503927178775	0.2685128504784517	0.00749167219647315	0.1464101785653517	0.2497862679759768	0.144311754560478	0.3410340621316202	0.38590217526523934	0.3218486684178637	0.39461234917446053	0.4214694465239554	0.5859209826128912	0.34693834930903295	0.40968547082019696	0.8064372358756051	0.27566144413887095	0.3803700581523148	0.8961389485467003	0.29031704170391615	0.4002612871418939	0.9250487899728173	0.3282469345528394	0.42305762096785654	0.925035577847634	0.03353791168971369	0.44343515831358826	0.3270369374912117	0.03376214185616065	0.4881496322397843	0.5968111316447815	0.06207910358997932	0.4708569399041214	0.8045112344419303	0.10361201338272519	0.41342513672686715	0.8766059976998558	0.09320240975575095	0.4249210364684841	0.9088920884035309	0.07245073210878704	0.44130056275968826	0.9151690468995958
4	0.0784313725490196	0.32689014124883853	0.5733720445708483	0.7569650057497281	0.3155582258105554	0.7105338275215296	1.1346535484802054	0.312863475388584	0.9374699811206918	1.5690778287309861	0.2818124135065396	0.6454491724235752	1.5957921228938285	0.337197157855355	0.7059689903613126	1.603511234192703	0.31533661239636773	1.0003524025800457	1.6289281447602117	0.13478068202053745	0.5554908806028405	0.7784155515923648	0.16352794660001355	0.6656381894959568	1.1342538568834704	0.17069211631208636	0.9023574782331754	1.5511257128036238	0.14238152301836712	0.6788030886644042	1.598779041981526	0.09360911231001834	0.7456016361475273	1.6023674168195494	0.1903506547568222	0.9859382690044141	1.626632985656779	0.19352098558577288	0.4058077110044102	0.22953047122358605	0.15513674052762	0.26841307827952543	0.007432744814239973	0.14642425492068958	0.24974329960524613	0.14435691381172755	0.3410957722310609	0.38604857645696034	0.3218895338846335	0.40084298433085275	0.4202861618193921	0.584741496519911	0.35112622343797156	0.41069143917777573	0.8059149171854237	0.26597734361549386	0.35615252446797374	0.8901829026373135	0.2853204628087806	0.38777372844849345	0.919398298417047	0.32332305267279104	0.420457991169309	0.9289778140186224	0.03685263861655242	0.4550879838349697	0.3257817885883363	0.0337870565845002	0.48822103191604904	0.5968428557903942	0.06634900381894615	0.4565889621748374	0.8071701711023447	0.1115581854014107	0.42688408270923	0.8775340758383846	0.097115158023232	0.4130892436316291	0.9070935740876709	0.08380327948583768	0.44173648858126024	0.914968887706203
